<svg width="31" height="31" viewBox="0 0 31 31" fill="none" xmlns="http://www.w3.org/2000/svg">
<path d="M4.95955 15.5C4.95955 9.67196 9.67155 4.95996 15.4996 4.95996C21.3276 4.95996 26.0396 9.67196 26.0396 15.5C26.0396 21.328 21.3275 26.04 15.4996 26.04C9.67155 26.04 4.95955 21.328 4.95955 15.5ZM24.7996 15.5C24.7996 10.354 20.6456 6.19996 15.4996 6.19996C10.3536 6.19996 6.19955 10.354 6.19955 15.5C6.19955 20.646 10.3536 24.8 15.4996 24.8C20.6456 24.8 24.7996 20.646 24.7996 15.5Z" fill="white"/>
<path d="M14.4455 20.6461L19.5915 15.5001L14.4455 10.3541L15.3135 9.48608L21.3275 15.5001L15.3135 21.5141L14.4455 20.6461Z" fill="white"/>
<path d="M20.4595 14.8799L20.4595 16.1199L9.91947 16.1199L9.91947 14.8799L20.4595 14.8799Z" fill="white"/>
</svg>
