<svg width="32" height="32" viewBox="0 0 32 32" fill="none" xmlns="http://www.w3.org/2000/svg">
<path d="M15.9697 0.621094C20.1475 0.621094 20.6621 0.651367 22.2969 0.711914C23.9014 0.772461 25.0215 1.04492 26.0205 1.43848C27.0498 1.83203 27.8975 2.34668 28.7451 3.19434C29.5928 4.04199 30.1074 4.88965 30.501 5.91895C30.8945 6.91797 31.167 8.03809 31.2275 9.64258C31.2881 11.2773 31.3184 11.792 31.3184 15.9697C31.3184 20.1475 31.2881 20.6621 31.2275 22.2969C31.167 23.9014 30.8945 25.0215 30.501 26.0205C30.1074 27.0498 29.5928 27.8975 28.7451 28.7451C27.8975 29.5928 27.0498 30.1074 26.0205 30.501C25.0215 30.8945 23.9014 31.167 22.2969 31.2275C20.6621 31.2881 20.1475 31.3184 15.9697 31.3184C11.792 31.3184 11.2773 31.2881 9.64258 31.2275C8.03809 31.167 6.91797 30.8945 5.91895 30.501C4.88965 30.1074 4.04199 29.5928 3.19434 28.7451C2.34668 27.8975 1.83203 27.0498 1.43848 26.0205C1.04492 25.0215 0.772461 23.9014 0.711914 22.2969C0.651367 20.6621 0.621094 20.1475 0.621094 15.9697C0.621094 11.792 0.651367 11.2773 0.711914 9.64258C0.772461 8.03809 1.04492 6.91797 1.43848 5.91895C1.83203 4.88965 2.34668 4.04199 3.19434 3.19434C4.04199 2.34668 4.88965 1.83203 5.91895 1.43848C6.91797 1.04492 8.03809 0.772461 9.64258 0.711914C11.2773 0.651367 11.792 0.621094 15.9697 0.621094ZM15.9697 2.61914C11.6104 2.61914 11.0957 2.64941 9.40039 2.70996C7.82617 2.77051 6.94824 3.07324 6.37305 3.28516C4.88965 3.89062 3.89062 4.88965 3.28516 6.37305C3.07324 6.94824 2.77051 7.82617 2.70996 9.40039C2.64941 11.0957 2.61914 11.6104 2.61914 15.9697C2.61914 20.3291 2.64941 20.8438 2.70996 22.5391C2.77051 24.1133 3.07324 24.9912 3.28516 25.5664C3.89062 27.0498 4.88965 28.0488 6.37305 28.6543C6.94824 28.8662 7.82617 29.1689 9.40039 29.2295C11.0957 29.29 11.6104 29.3203 15.9697 29.3203C20.3291 29.3203 20.8438 29.29 22.5391 29.2295C24.1133 29.1689 24.9912 28.8662 25.5664 28.6543C27.0498 28.0488 28.0488 27.0498 28.6543 25.5664C28.8662 24.9912 29.1689 24.1133 29.2295 22.5391C29.29 20.8438 29.3203 20.3291 29.3203 15.9697C29.3203 11.6104 29.29 11.0957 29.2295 9.40039C29.1689 7.82617 28.8662 6.94824 28.6543 6.37305C28.0488 4.88965 27.0498 3.89062 25.5664 3.28516C24.9912 3.07324 24.1133 2.77051 22.5391 2.70996C20.8438 2.64941 20.3291 2.61914 15.9697 2.61914ZM15.9697 22.1152C19.3604 22.1152 22.1152 19.3604 22.1152 15.9697C22.1152 12.5791 19.3604 9.82422 15.9697 9.82422C12.5791 9.82422 9.82422 12.5791 9.82422 15.9697C9.82422 19.3604 12.5791 22.1152 15.9697 22.1152ZM15.9697 8.09863C20.3291 8.09863 23.8408 11.6104 23.8408 15.9697C23.8408 20.3291 20.3291 23.8408 15.9697 23.8408C11.6104 23.8408 8.09863 20.3291 8.09863 15.9697C8.09863 11.6104 11.6104 8.09863 15.9697 8.09863ZM26.0205 7.7959C26.0205 8.8252 25.1729 9.6123 24.1436 9.6123C23.1143 9.6123 22.3271 8.8252 22.3271 7.7959C22.3271 6.7666 23.1143 5.91895 24.1436 5.91895C25.1729 5.91895 26.0205 6.7666 26.0205 7.7959Z" fill="#FF8328"/>
</svg>
